<svg xmlns="http://www.w3.org/2000/svg" width="17.445" height="16.695" viewBox="0 0 17.445 16.695">
  <path id="line_icon" d="M0,7.143v-.2c.046-.308.055-.619.116-.925A6.6,6.6,0,0,1,2.383,2.247,9.324,9.324,0,0,1,7.605.064,10.184,10.184,0,0,1,11.977.52a8.1,8.1,0,0,1,4.482,3.343,5.772,5.772,0,0,1,.466,5.622A8.29,8.29,0,0,1,14.891,12.2a29.882,29.882,0,0,1-5.685,4.136,2.751,2.751,0,0,1-.775.336c-.369.081-.521-.046-.478-.421.046-.4.131-.794.16-1.194.037-.51-.078-.67-.528-.84a.826.826,0,0,0-.13-.038c-.35-.068-.7-.125-1.048-.2a8.863,8.863,0,0,1-4.483-2.4A6.458,6.458,0,0,1,.126,8.27,11.284,11.284,0,0,1,0,7.143m8.668-.249.038-.006L10.4,9.2a.452.452,0,0,0,.551.219.457.457,0,0,0,.306-.492q0-1.556,0-3.111c0-.113,0-.227,0-.34a.448.448,0,0,0-.872-.113,1.227,1.227,0,0,0-.032.32c0,.584,0,1.167,0,1.751a.308.308,0,0,1-.028.188c-.034-.041-.059-.069-.082-.1l-1.618-2.2c-.169-.229-.347-.307-.547-.242a.485.485,0,0,0-.318.523q0,1.658,0,3.316a.654.654,0,0,0,.029.217.461.461,0,0,0,.471.314.467.467,0,0,0,.409-.485c0-.516,0-1.032,0-1.547v-.52m3.215.334c0,.567,0,1.133,0,1.7a.471.471,0,0,0,.527.523c.538,0,1.076,0,1.615,0a.471.471,0,0,0,.5-.47.46.46,0,0,0-.5-.442c-.357,0-.714-.008-1.071,0-.141,0-.173-.044-.164-.172.01-.147,0-.295,0-.442,0-.24-.043-.22.23-.222.334,0,.669,0,1,0a.465.465,0,0,0,.5-.444.457.457,0,0,0-.5-.462c-.368,0-.736,0-1.1,0-.106,0-.138-.031-.134-.134.008-.187.01-.374,0-.561-.007-.121.033-.153.152-.151.38.007.759,0,1.139,0a.417.417,0,0,0,.408-.278.455.455,0,0,0-.465-.627c-.521-.007-1.042,0-1.564,0-.409,0-.572.166-.572.58q0,.8,0,1.6M3.128,7.24c0,.572,0,1.144,0,1.715a.469.469,0,0,0,.49.494q.832.007,1.665,0a.457.457,0,1,0-.011-.913c-.34,0-.68-.009-1.019,0-.163.006-.219-.027-.216-.207.011-.912,0-1.824.006-2.735a.593.593,0,0,0-.085-.34.449.449,0,0,0-.5-.185.47.47,0,0,0-.325.468c0,.566,0,1.132,0,1.7m3.065,0q0,.84,0,1.681a.46.46,0,1,0,.909,0q0-1.673,0-3.345a.459.459,0,1,0-.909,0q0,.832,0,1.664" transform="translate(0 0)" fill="#202733"/>
</svg>
