<svg id="ic_medicine" xmlns="http://www.w3.org/2000/svg" xmlns:xlink="http://www.w3.org/1999/xlink" width="26.605" height="24" viewBox="0 0 26.605 24">
  <defs>
    <linearGradient id="linear-gradient" x1="1" y1="-0.061" x2="0.17" y2="1" gradientUnits="objectBoundingBox">
      <stop offset="0" stop-color="#77cbf2"/>
      <stop offset="1" stop-color="#00a886"/>
    </linearGradient>
  </defs>
  <path id="Path_1394" data-name="Path 1394" d="M7.792,0A7.921,7.921,0,0,1,12.8,1.824a.615.615,0,0,0,.947.013A7.8,7.8,0,0,1,26.309,5.8a7.571,7.571,0,0,1-1.832,7.321C22.8,15.034,20.9,16.732,19.1,18.536c-1.686,1.694-3.386,3.373-5.082,5.057-.542.539-.924.543-1.456.014q-4.9-4.868-9.8-9.74A8.618,8.618,0,0,1,.074,8.894,7.782,7.782,0,0,1,4.664.673,7.659,7.659,0,0,1,7.792,0m3.685,13.639a1.253,1.253,0,0,0,.341-.557q1.371-2.877,2.728-5.76c.162-.344.346-.642.78-.66.458-.019.672.279.86.631.782,1.463,1.576,2.92,2.351,4.387a.591.591,0,0,0,.6.38c1.3-.015,2.6-.01,3.9,0a.611.611,0,0,0,.529-.251,6.211,6.211,0,0,0-2.121-9.615,6.42,6.42,0,0,0-7.285,1.33c-.779.709-.959.706-1.727.012a6.415,6.415,0,0,0-5.7-1.86A6.211,6.211,0,0,0,2.932,11.7a.76.76,0,0,0,.684.36q1.48-.027,2.962,0a.643.643,0,0,0,.666-.368c.235-.442.5-.872.769-1.292a.786.786,0,0,1,1.371-.034c.1.14.185.292.278.438l1.816,2.838M4.8,13.612a2.424,2.424,0,0,0,.139.2q4.047,4.032,8.088,8.068c.276.277.394.1.568-.071q3.919-3.9,7.84-7.8c.092-.091.225-.161.239-.324-.152-.126-.33-.07-.493-.071-.883-.007-1.767-.018-2.649,0a1.053,1.053,0,0,1-1.079-.634c-.4-.8-.842-1.587-1.268-2.377-.248-.459-.5-.915-.786-1.433L14.013,12.1c-.548,1.154-1.088,2.312-1.648,3.46a.789.789,0,0,1-1.464.092c-.107-.157-.206-.32-.308-.48L8.738,12.263a3.127,3.127,0,0,0-.288.447,1.392,1.392,0,0,1-1.6.914c-.644-.058-1.3-.012-2.044-.012" transform="translate(0)" fill="url(#linear-gradient)"/>
</svg>
