<svg xmlns="http://www.w3.org/2000/svg" xmlns:xlink="http://www.w3.org/1999/xlink" width="24.003" height="24" viewBox="0 0 24.003 24">
  <defs>
    <linearGradient id="linear-gradient" x1="0.907" y1="0.076" x2="0.183" y2="1" gradientUnits="objectBoundingBox">
      <stop offset="0" stop-color="#77cbf2"/>
      <stop offset="1" stop-color="#00a886"/>
    </linearGradient>
  </defs>
  <path id="ic_science" d="M0,11.959A12,12,0,1,1,11.914,24,11.994,11.994,0,0,1,0,11.959m22.588.514a10.753,10.753,0,0,0-1.2-5.408.6.6,0,0,0-.441-.3,20.5,20.5,0,0,0-11.4.188c-.3.088-.341.2-.215.477a11.116,11.116,0,0,0,2.445,3.454.642.642,0,0,0,.738.176,11.636,11.636,0,0,1,6.775-.085,12.7,12.7,0,0,1,3.3,1.5M6.445,21.014a10.784,10.784,0,0,0,4.924,1.572.648.648,0,0,0,.53-.23A19.23,19.23,0,0,0,14.1,19.875a20.878,20.878,0,0,0,3.491-7.386c.061-.238.122-.444-.258-.488a11.066,11.066,0,0,0-4.351.37.534.534,0,0,0-.421.478A11.853,11.853,0,0,1,9.407,18.79a12.258,12.258,0,0,1-2.963,2.224M7.033,2.645A10.781,10.781,0,0,0,3.406,5.806c-.128.173-.052.334-.021.49a20.29,20.29,0,0,0,5.581,10.3c.218.223.325.195.49-.043a11.284,11.284,0,0,0,1.71-3.817.638.638,0,0,0-.223-.722A11.658,11.658,0,0,1,8.019,7.936a12.256,12.256,0,0,1-.986-5.291M2.306,7.919c-.178.1-.192.272-.243.411a10.041,10.041,0,0,0-.587,2.541,10.462,10.462,0,0,0,3.439,9,.4.4,0,0,0,.53.061A11.879,11.879,0,0,0,8,18.211c.264-.232.263-.362.007-.613a21.86,21.86,0,0,1-4.334-6.062A21.818,21.818,0,0,1,2.306,7.919m11.51,14.516c.3-.06.469-.083.632-.127a10.536,10.536,0,0,0,7.866-7.838.506.506,0,0,0-.251-.65,13.268,13.268,0,0,0-2.574-1.311c-.369-.141-.463-.019-.541.312a21.488,21.488,0,0,1-2.465,6.026,22.329,22.329,0,0,1-2.668,3.588m6.123-17.38a.871.871,0,0,0-.082-.154A10.591,10.591,0,0,0,8.795,1.893a.427.427,0,0,0-.334.436,11.417,11.417,0,0,0,.226,3.116c.058.272.153.265.378.195a22.224,22.224,0,0,1,7.894-.96,27.279,27.279,0,0,1,2.979.375" fill="url(#linear-gradient)"/>
</svg>
