<svg xmlns="http://www.w3.org/2000/svg" width="270.909" height="63.206" viewBox="0 0 270.909 63.206">
  <g id="links_logo" transform="translate(-1.75 -2.125)">
    <path id="Path_4064" data-name="Path 4064" d="M33.453,2.708A31.119,31.119,0,1,0,64.566,33.83,31.158,31.158,0,0,0,33.453,2.708" transform="translate(-0.096 -0.097)" fill="#fff"/>
    <path id="Path_4065" data-name="Path 4065" d="M35.795,16.858A19.32,19.32,0,1,0,55.114,36.172,19.342,19.342,0,0,0,35.795,16.858Z" transform="translate(-2.437 -2.44)" fill="#23a2be"/>
    <path id="Path_4066" data-name="Path 4066" d="M47.682,27.883H43.044l-2.6-10.542a19.2,19.2,0,0,0-9.548.252l-3.182,10.29H23.686l-4.962,16.6a19.3,19.3,0,0,0,30.942,5.5q.753-.755,1.442-1.57a19.385,19.385,0,0,0,2.179-3.3l-5.6-17.23Z" transform="translate(-2.811 -2.44)" fill="#4fb9d3"/>
    <path id="Path_4067" data-name="Path 4067" d="M41.234,28.7,38.448,16.934q-.83-.073-1.665-.076a19.462,19.462,0,0,0-2.709.194l-2.511,11.04H28.531L22.442,49.109a19.28,19.28,0,0,0,28.4.3L44.262,28.7H41.234Z" transform="translate(-3.426 -2.44)" fill="#fff"/>
    <path id="Path_4068" data-name="Path 4068" d="M44.385,37.805A9.067,9.067,0,0,0,36.7,42.176a9.068,9.068,0,0,0-7.683-4.371s1.575,7.028,6.774,8.269v3.963a23.611,23.611,0,0,0-12.122,3.588,19.273,19.273,0,0,0,26.31.306A23.385,23.385,0,0,0,37.61,50.047V46.072c5.207-1.246,6.775-8.267,6.775-8.267Z" transform="translate(-3.63 -5.908)" fill="#94c751"/>
    <path id="Path_4069" data-name="Path 4069" d="M35.581,16.643A19.32,19.32,0,1,0,54.9,35.957a19.343,19.343,0,0,0-19.32-19.314m0,39.719a20.4,20.4,0,1,1,20.4-20.405,20.426,20.426,0,0,1-20.4,20.405" transform="translate(-2.224 -2.225)" fill="#fff"/>
    <path id="Path_4070" data-name="Path 4070" d="M11.678,41.569l1.249,2.238-.254.148a2.3,2.3,0,0,0-.2-.306,1.014,1.014,0,0,0-.2-.229.557.557,0,0,0-.253-.079.611.611,0,0,0-.249.063l-3.68,2.047.026.055,5.272-.669.105.188L9.993,49.1l.023.04,3.028-1.669a3.5,3.5,0,0,0,.637-.422.735.735,0,0,0,.236-.363,1,1,0,0,0-.041-.4,2.114,2.114,0,0,0-.1-.358l.253-.148,1.131,2.055-.257.136a2.28,2.28,0,0,0-.237-.3.583.583,0,0,0-.674-.223,5.08,5.08,0,0,0-.72.339L10.676,49.23a1.064,1.064,0,0,0-.333.254.693.693,0,0,0-.15.286,1,1,0,0,0,.008.351,1.463,1.463,0,0,0,.125.348l-.249.139-.96-1.721,3-3.548-3.863.51a3.623,3.623,0,0,0-.434.086q-.145.041-.286.1l-.911-1.651.254-.148a1.608,1.608,0,0,0,.173.241c.076.088.136.151.176.2a.3.3,0,0,0,.233.08.739.739,0,0,0,.241-.08l3.656-2.016a.852.852,0,0,0,.193-.166.431.431,0,0,0,.056-.249.923.923,0,0,0-.061-.261c-.044-.115-.077-.209-.113-.282Zm-.622-2.983.708,2.5-.281.09c-.024-.068-.06-.17-.108-.3a1.915,1.915,0,0,0-.119-.276.461.461,0,0,0-.2-.144.435.435,0,0,0-.257.005L6.754,41.6a.576.576,0,0,0-.216.108.339.339,0,0,0-.1.249,2.524,2.524,0,0,0-.008.319,2.638,2.638,0,0,0,.033.311l-.277.073-.708-2.5.282-.075a2.47,2.47,0,0,0,.257.547.333.333,0,0,0,.211.161.843.843,0,0,0,.249-.013l4.033-1.139a.517.517,0,0,0,.218-.124.407.407,0,0,0,.1-.243,1.435,1.435,0,0,0-.009-.287,1.293,1.293,0,0,0-.045-.325l.279-.083ZM4.919,32.559a1.837,1.837,0,0,0,.088.349,1.334,1.334,0,0,0,.149.33.621.621,0,0,0,.409.171,4.285,4.285,0,0,0,.736,0l4.23-.292.023.355L6.072,37.3l2.98-.209a5.185,5.185,0,0,0,.766-.111.75.75,0,0,0,.366-.227,1.048,1.048,0,0,0,.14-.4,2.492,2.492,0,0,0,.056-.4l.285-.014.164,2.378-.29.015a1.658,1.658,0,0,0-.1-.366.732.732,0,0,0-.154-.316.57.57,0,0,0-.355-.178,3.313,3.313,0,0,0-.8.013l-2.848.19a1.193,1.193,0,0,0-.372.089.771.771,0,0,0-.275.191,1.224,1.224,0,0,0-.209.421,1.468,1.468,0,0,0-.068.412l-.294.018-.108-1.649L9.124,33.6l-2.744.191a3.536,3.536,0,0,0-.776.122.592.592,0,0,0-.345.209,1.317,1.317,0,0,0-.125.384,1.629,1.629,0,0,0-.055.4l-.285.018-.161-2.345.286-.02Zm6.019-3.121-.345,2.581-.283-.039a2.951,2.951,0,0,1,.022-.325,1,1,0,0,0-.017-.295.412.412,0,0,0-.115-.214.491.491,0,0,0-.247-.091L5.8,30.5a.761.761,0,0,0-.244.018.333.333,0,0,0-.186.187c-.047.081-.083.177-.139.295-.037.119-.069.223-.088.294l-.281-.035L5.2,28.675l.29.037c0,.075-.012.186-.012.3s.016.222.031.312a.324.324,0,0,0,.129.23.521.521,0,0,0,.232.085l4.162.55a.547.547,0,0,0,.24-.019.364.364,0,0,0,.189-.175,1.887,1.887,0,0,0,.11-.265,1.715,1.715,0,0,0,.085-.327Zm-1.4-4.792a1.355,1.355,0,0,1,.51-.135,1.818,1.818,0,0,1,.566.084,1.58,1.58,0,0,1,1.036.924,2.049,2.049,0,0,1,.062,1.494,2.484,2.484,0,0,1-.35.705,2.939,2.939,0,0,1-.48.547l.23.261-.1.31L9.106,28.3l.1-.313a4.061,4.061,0,0,0,.708-.027,2.253,2.253,0,0,0,.629-.183,1.507,1.507,0,0,0,.518-.362,1.327,1.327,0,0,0,.333-.588,1.432,1.432,0,0,0,.077-.5.829.829,0,0,0-.1-.386.851.851,0,0,0-.246-.275,1.207,1.207,0,0,0-1.051-.188,1.183,1.183,0,0,0-.611.416c-.12.16-.261.323-.4.514s-.285.355-.416.487a2.023,2.023,0,0,1-.773.562,1.507,1.507,0,0,1-.969-.023,1.31,1.31,0,0,1-.552-.317,1.34,1.34,0,0,1-.368-.514,1.614,1.614,0,0,1-.154-.631,1.894,1.894,0,0,1,.081-.68,2.091,2.091,0,0,1,.333-.642,3.707,3.707,0,0,1,.454-.476l-.214-.235.1-.313,1.839.543-.093.306a6.4,6.4,0,0,0-.662.011,2.019,2.019,0,0,0-.611.113,1.286,1.286,0,0,0-.489.3,1.266,1.266,0,0,0-.319.553.91.91,0,0,0,.041.7.784.784,0,0,0,.5.447,1,1,0,0,0,.643.01,1.185,1.185,0,0,0,.532-.355,4.618,4.618,0,0,0,.416-.486c.123-.165.249-.313.38-.473.117-.128.236-.253.37-.376a1.63,1.63,0,0,1,.416-.272m1.442-6.189-.135.243a3.044,3.044,0,0,0-.37-.057,4.276,4.276,0,0,0-.439,0,2.07,2.07,0,0,0-.417.073.542.542,0,0,0-.277.165c-.053.073-.108.16-.174.26s-.126.207-.184.313l-.115.214,4.046,2.26a.47.47,0,0,0,.239.077.4.4,0,0,0,.249-.09,1.929,1.929,0,0,0,.216-.241,2.241,2.241,0,0,0,.226-.281l.253.139-1.334,2.381-.253-.143c.033-.069.08-.176.139-.318a1.423,1.423,0,0,0,.109-.315.391.391,0,0,0-.038-.249.577.577,0,0,0-.2-.184L8.445,20.419l-.118.213c-.037.076-.088.164-.148.269s-.1.224-.15.337a.516.516,0,0,0,0,.317,1.865,1.865,0,0,0,.159.393,3.268,3.268,0,0,0,.236.376,2.632,2.632,0,0,0,.229.281l-.14.254L7.152,22.1l2.466-4.406,1.365.767Zm3-3.6a1.1,1.1,0,0,0-.823-.34,1.164,1.164,0,0,0-.8.414l-.477.514,1.826,1.682.366-.4a1.255,1.255,0,0,0-.093-1.871M18.606,16.2l-1.053,1.149q-.832-.146-1.67-.257-.754-.093-1.511-.16l-.4.446,1.345,1.24a.724.724,0,0,0,.223.134.311.311,0,0,0,.249-.033A1.219,1.219,0,0,0,16,18.569a2.222,2.222,0,0,0,.234-.22l.213.2L14.8,20.343l-.212-.189c.038-.058.093-.132.169-.229a1.54,1.54,0,0,0,.132-.224.332.332,0,0,0,0-.232.5.5,0,0,0-.153-.216l-3.092-2.839a.634.634,0,0,0-.209-.139.355.355,0,0,0-.253.02c-.065.038-.142.091-.226.15s-.165.129-.216.174l-.209-.2,1.8-1.962a3.014,3.014,0,0,1,.522-.451,1.91,1.91,0,0,1,.574-.274,1.432,1.432,0,0,1,.592-.006,1.2,1.2,0,0,1,.57.319,1.544,1.544,0,0,1,.366.479,1.155,1.155,0,0,1,.119.515,1.672,1.672,0,0,1-.073.537,2.723,2.723,0,0,1-.227.562c.472.053.874.09,1.192.128s.7.075,1.164.127a2.31,2.31,0,0,0,.484,0,1.5,1.5,0,0,0,.336-.084,1.065,1.065,0,0,0,.241-.139c.08-.064.149-.128.2-.169l.211.19ZM19.642,8.97a.868.868,0,0,0-.144.169.7.7,0,0,0-.129.2,2.332,2.332,0,0,0-.1.249c0,.048-.015.171-.023.355-.008.365,0,.724.023,1.082l.108,1.348a1.993,1.993,0,0,0,.068.459,1.641,1.641,0,0,0,.219.411l.622.913a.517.517,0,0,0,.2.175.371.371,0,0,0,.265.026,1.348,1.348,0,0,0,.3-.1,3.184,3.184,0,0,0,.317-.154l.164.241L19.3,15.862l-.164-.24c.059-.045.148-.122.265-.212a1.336,1.336,0,0,0,.229-.231.328.328,0,0,0,.068-.251.476.476,0,0,0-.093-.249l-.792-1.156a.644.644,0,0,0-.2-.164c-.108-.063-.232-.128-.374-.214-.313-.162-.654-.344-1.02-.532s-.7-.358-.962-.489a2.475,2.475,0,0,0-.4-.16,1.388,1.388,0,0,0-.312-.038.773.773,0,0,0-.244.053,1.69,1.69,0,0,0-.23.108l-.164-.237,2.041-1.388.165.227a3.383,3.383,0,0,0-.454.385c-.077.087-.1.159-.064.21a.15.15,0,0,0,.072.058,1.254,1.254,0,0,0,.14.1c.067.038.148.066.24.118s.176.1.261.149c.244.128.484.253.728.376s.57.285.96.486c-.038-.81-.067-1.442-.093-1.884a2.669,2.669,0,0,0-.113-.763.185.185,0,0,0-.144-.084.51.51,0,0,0-.2.033.93.93,0,0,0-.237.109c-.075.043-.152.09-.226.123l-.16-.244,1.665-1.125.158.239Zm8.483,1.7a2.677,2.677,0,0,0,.1-.9,5.161,5.161,0,0,0-.582-2.058,2.757,2.757,0,0,0-.56-.724,1.588,1.588,0,0,0-2.229.091,1.72,1.72,0,0,0-.376.718,2.909,2.909,0,0,0-.069.894,5.033,5.033,0,0,0,.177,1,5.129,5.129,0,0,0,.382.992,2.8,2.8,0,0,0,.55.724,1.556,1.556,0,0,0,.683.391,1.519,1.519,0,0,0,.824-.017,1.469,1.469,0,0,0,.7-.407,1.535,1.535,0,0,0,.4-.708m-.506-4.114a2.8,2.8,0,0,1,.839.775A3.5,3.5,0,0,1,29,8.481a3.385,3.385,0,0,1,.119,1.259,2.835,2.835,0,0,1-.334,1.092,2.909,2.909,0,0,1-.7.824,3.117,3.117,0,0,1-.97.488,2.873,2.873,0,0,1-1.134.074,2.7,2.7,0,0,1-1.02-.376,2.779,2.779,0,0,1-.813-.776,3.4,3.4,0,0,1-.526-1.1,3.458,3.458,0,0,1-.12-1.268,2.807,2.807,0,0,1,.334-1.1,2.5,2.5,0,0,1,.7-.824,2.8,2.8,0,0,1,.965-.487,2.917,2.917,0,0,1,1.1-.081,2.593,2.593,0,0,1,1.013.352m6.941.221-.305.012a2.12,2.12,0,0,0-.391-.675.882.882,0,0,0-.534-.388c-.08,0-.181-.01-.3-.01a3.448,3.448,0,0,0-.395.01l-.971.028.081,2.32.666-.018a1.481,1.481,0,0,0,.471-.074.859.859,0,0,0,.28-.214A.98.98,0,0,0,33.3,7.49a2.12,2.12,0,0,0,.076-.409l.3-.011.076,2.27-.3,0a2.433,2.433,0,0,0-.1-.4,1.222,1.222,0,0,0-.168-.329.639.639,0,0,0-.313-.191,1.449,1.449,0,0,0-.446-.041l-.673.027.064,1.988a.705.705,0,0,0,.068.244.446.446,0,0,0,.194.164,1.176,1.176,0,0,0,.265.058c.14.021.244.033.316.037l.008.285-2.507.084,0-.285a3.029,3.029,0,0,1,.319-.037,1.538,1.538,0,0,0,.261-.058.352.352,0,0,0,.173-.168.5.5,0,0,0,.048-.255l-.144-4.177a.485.485,0,0,0-.053-.234.338.338,0,0,0-.2-.159,1.221,1.221,0,0,0-.294-.09,2.111,2.111,0,0,0-.3-.037l-.007-.292,4.537-.149.053,1.443ZM42.185,11.1l-.57,1.61L37,11.4l.08-.273c.08.014.188.031.325.052a1.528,1.528,0,0,0,.265.017.39.39,0,0,0,.22-.107.592.592,0,0,0,.118-.222l1.135-4.008a.534.534,0,0,0,.02-.237.34.34,0,0,0-.131-.217,1.013,1.013,0,0,0-.256-.172,2.964,2.964,0,0,0-.27-.127l.075-.275,4.3,1.215L42.5,8.394l-.3-.081a1.733,1.733,0,0,0-.157-.728.841.841,0,0,0-.386-.514c-.079-.027-.177-.063-.285-.1q-.186-.064-.376-.115L40.12,6.6l-.631,2.213.622.175a1.4,1.4,0,0,0,.462.073.651.651,0,0,0,.3-.128,1.4,1.4,0,0,0,.238-.267,1.884,1.884,0,0,0,.177-.344l.3.091-.624,2.192-.3-.087a1.76,1.76,0,0,0,.026-.423,1.032,1.032,0,0,0-.051-.346.546.546,0,0,0-.219-.275,1.325,1.325,0,0,0-.39-.165L39.4,9.136,38.923,10.8a2.028,2.028,0,0,0-.075.412.4.4,0,0,0,.075.254.638.638,0,0,0,.254.179c.109.043.274.091.494.154.076.025.193.058.333.1a2.428,2.428,0,0,0,.365.08,1.828,1.828,0,0,0,.32.035.461.461,0,0,0,.253-.048,2.416,2.416,0,0,0,.548-.469,4.431,4.431,0,0,0,.412-.49l.284.085Zm5.209,1.538a3.488,3.488,0,0,0,.393-.983,2.515,2.515,0,0,0,.016-.94,2.023,2.023,0,0,0-1.028-1.428c-.093-.051-.2-.117-.325-.18s-.216-.119-.278-.147l-2.229,3.852a.559.559,0,0,0-.071.547,1.187,1.187,0,0,0,.5.455,1.973,1.973,0,0,0,.88.3,1.654,1.654,0,0,0,.8-.123,2.345,2.345,0,0,0,.713-.5,4.2,4.2,0,0,0,.626-.848m.859.5a2.812,2.812,0,0,1-.884.97,2.72,2.72,0,0,1-1.062.409,3.012,3.012,0,0,1-1.141-.057,3.832,3.832,0,0,1-1.08-.431l-2.077-1.2.148-.255a1.792,1.792,0,0,0,.278.141,1,1,0,0,0,.241.073.31.31,0,0,0,.236-.041.509.509,0,0,0,.169-.193l2.094-3.613a.5.5,0,0,0,.088-.244.374.374,0,0,0-.072-.244A1.081,1.081,0,0,0,45,8.248a1.153,1.153,0,0,0-.209-.164l.154-.251L47.126,9.1a3.4,3.4,0,0,1,.812.66,3.148,3.148,0,0,1,.545.816A2.467,2.467,0,0,1,48.7,11.8a3.012,3.012,0,0,1-.441,1.344m6.911,3a2.469,2.469,0,0,0-.27-.2,1.329,1.329,0,0,0-.358-.154.553.553,0,0,0-.4.136,3.459,3.459,0,0,0-.547.469L51.8,18.164a1.654,1.654,0,0,1-1.522.489,2.7,2.7,0,0,1-.7-.255,2.658,2.658,0,0,1-.544-.42,2.949,2.949,0,0,1-.564-.758,1.917,1.917,0,0,1-.214-.748,1.393,1.393,0,0,1,.088-.664,1.489,1.489,0,0,1,.341-.545l2.429-2.416a.615.615,0,0,0,.138-.2.5.5,0,0,0-.008-.265,1.523,1.523,0,0,0-.121-.255c-.065-.085-.112-.152-.157-.212l.2-.2,1.694,1.7-.21.2a1.7,1.7,0,0,0-.227-.169,1.629,1.629,0,0,0-.212-.138.323.323,0,0,0-.246-.021.712.712,0,0,0-.213.153L49.486,15.7a2.635,2.635,0,0,0-.31.372,1.3,1.3,0,0,0-.2.481,1.168,1.168,0,0,0,.045.573,1.719,1.719,0,0,0,.434.638,2.017,2.017,0,0,0,.63.436,1.4,1.4,0,0,0,.61.078,1.657,1.657,0,0,0,.494-.158,2.163,2.163,0,0,0,.4-.292l1.681-1.682a3.377,3.377,0,0,0,.479-.566.612.612,0,0,0,.132-.4,1.068,1.068,0,0,0-.16-.389,2.049,2.049,0,0,0-.222-.313l.206-.2,1.667,1.665-.209.2Zm-2.686,6.343a2.591,2.591,0,0,1-.338-.96,2.482,2.482,0,0,1,.08-1.017,2.944,2.944,0,0,1,.506-.98,3.44,3.44,0,0,1,.96-.823,3.368,3.368,0,0,1,1.188-.46,2.849,2.849,0,0,1,1.134,0,2.526,2.526,0,0,1,.987.434,2.485,2.485,0,0,1,.74.806,2.9,2.9,0,0,1,.313.715,2.515,2.515,0,0,1,.076.712h.332l.161.285-1.746,1.081L56.7,22c.148-.15.3-.315.457-.5a2.251,2.251,0,0,0,.354-.574,1.5,1.5,0,0,0,.141-.615,1.24,1.24,0,0,0-.19-.606,1.463,1.463,0,0,0-.517-.533,1.638,1.638,0,0,0-.747-.243,2.587,2.587,0,0,0-.916.113,4.16,4.16,0,0,0-1.046.477,3.258,3.258,0,0,0-.805.637,2.582,2.582,0,0,0-.49.753,1.873,1.873,0,0,0-.15.819,1.517,1.517,0,0,0,.234.775,1.781,1.781,0,0,0,.4.47,1.655,1.655,0,0,0,.481.267,2.251,2.251,0,0,0,.535.1A2.549,2.549,0,0,0,55,23.291l.032.34a2.259,2.259,0,0,1-2.553-1.149m4.578,4.352L58.94,25.3l-2.418-.134ZM55.5,29.764l-.726-2.294.272-.083a2.1,2.1,0,0,0,.243.47c.076.127.148.177.2.159a.209.209,0,0,0,.081-.038.179.179,0,0,0,.085-.053l1.094-.844-.62-1.941A4.235,4.235,0,0,0,55.6,25.1h-.409a1.908,1.908,0,0,0-.3.013,1.385,1.385,0,0,0-.182.039c-.1.035-.156.142-.16.326a2.088,2.088,0,0,0,.071.578l-.271.09L53.7,24.073l.274-.091a1.074,1.074,0,0,0,.129.239,1.091,1.091,0,0,0,.174.23,1.179,1.179,0,0,0,.295.163,1.485,1.485,0,0,0,.374.07c.779.048,1.653.1,2.626.169s1.836.119,2.591.164l.1.315-4.184,3.352a.889.889,0,0,0-.316.473.862.862,0,0,0-.012.261.947.947,0,0,0,.037.253l-.278.093Zm4.482,4.307-.02-.282a2.623,2.623,0,0,0,.694-.413,1.461,1.461,0,0,0,.306-.288.606.606,0,0,0,.14-.292c0-.078,0-.189-.008-.315a3.039,3.039,0,0,0-.018-.364l-.02-.233-4.614.37a.61.61,0,0,0-.245.077.448.448,0,0,0-.16.217c-.008.046-.033.159-.047.31a2.262,2.262,0,0,0-.025.368l-.281.023-.224-2.718.287-.02c.01.068.034.179.058.346a1.385,1.385,0,0,0,.084.312.4.4,0,0,0,.173.185.533.533,0,0,0,.273.043l4.654-.376-.017-.24c-.011-.081-.014-.183-.036-.306s-.028-.239-.049-.358a.476.476,0,0,0-.187-.26,2.2,2.2,0,0,0-.345-.243,3.186,3.186,0,0,0-.756-.289l-.023-.285,1.561-.128.4,5.034-1.559.125ZM55.4,37.291l.257-2.594.29.027c0,.073,0,.181-.008.319a1.326,1.326,0,0,0,.017.3.4.4,0,0,0,.127.205.408.408,0,0,0,.244.092l4.181.412a.5.5,0,0,0,.239-.021.35.35,0,0,0,.186-.19,1.989,1.989,0,0,0,.118-.3,1.12,1.12,0,0,0,.077-.3l.289.037-.253,2.587-.289-.027c0-.086,0-.187,0-.305a1.963,1.963,0,0,0-.031-.305A.351.351,0,0,0,60.7,37a.536.536,0,0,0-.232-.078L56.291,36.5a.5.5,0,0,0-.246.033.4.4,0,0,0-.184.188,2.111,2.111,0,0,0-.168.589l-.29-.023Zm-.217,4.729a2.923,2.923,0,0,0,.7.572,4.615,4.615,0,0,0,.97.4,4.821,4.821,0,0,0,1.077.208,2.589,2.589,0,0,0,.911-.067,1.719,1.719,0,0,0,.691-.377,1.558,1.558,0,0,0,.414-.679,1.579,1.579,0,0,0,.033-.867,1.806,1.806,0,0,0-.414-.709,2.626,2.626,0,0,0-.712-.54,5.22,5.22,0,0,0-1.983-.611,2.782,2.782,0,0,0-.9.068,1.719,1.719,0,0,0-.7.372,1.46,1.46,0,0,0-.426.7,1.507,1.507,0,0,0-.041.805,1.54,1.54,0,0,0,.376.723m3.739,1.792a2.919,2.919,0,0,1-1.1.3,3.607,3.607,0,0,1-1.257-.166,3.507,3.507,0,0,1-1.129-.578,2.786,2.786,0,0,1-.738-.881,2.638,2.638,0,0,1-.2-2.1,2.71,2.71,0,0,1,.548-1,2.613,2.613,0,0,1,.864-.655A3.1,3.1,0,0,1,57,38.461a3.652,3.652,0,0,1,1.221.159,3.238,3.238,0,0,1,1.135.594,2.925,2.925,0,0,1,.737.853,2.691,2.691,0,0,1,.207,2.111,2.837,2.837,0,0,1-.528.983,2.613,2.613,0,0,1-.845.652m-3.843,7.61a1.383,1.383,0,0,0,.131-.335,1.04,1.04,0,0,0,.085-.35.584.584,0,0,0-.229-.38,4.333,4.333,0,0,0-.59-.436L50.9,47.643l.194-.295,5.878-.419-2.522-1.605a3.81,3.81,0,0,0-.683-.359.692.692,0,0,0-.43-.045,1.072,1.072,0,0,0-.345.234,2.212,2.212,0,0,0-.28.286l-.244-.154,1.277-2.011.244.157a2.787,2.787,0,0,0-.134.36.963.963,0,0,0-.068.347.534.534,0,0,0,.189.345,3.826,3.826,0,0,0,.65.481L57.032,46.5a1.314,1.314,0,0,0,.354.147.905.905,0,0,0,.337.006,1.229,1.229,0,0,0,.4-.209,1.112,1.112,0,0,0,.31-.286l.245.157L57.794,47.7l-5.47.379,2.32,1.474a3.336,3.336,0,0,0,.691.365.6.6,0,0,0,.406.033,1.558,1.558,0,0,0,.325-.226,2.184,2.184,0,0,0,.278-.291l.244.156-1.26,1.985-.249-.158ZM33.357,2.611A31.12,31.12,0,1,0,64.471,33.732,31.158,31.158,0,0,0,33.357,2.611m0,62.721a31.6,31.6,0,1,1,31.6-31.6,31.641,31.641,0,0,1-31.6,31.6M23.5,53.479l.228.133c.164.219-.127.563-.882,1.041l.545.376,2,1.124c-.08.5-.365.612-.838.351A7.776,7.776,0,0,0,22.8,55.443l-.692-.267-.582.3a.8.8,0,0,1-.557-.893l.1-.193a3.321,3.321,0,0,0,2.431-.915m-.257,2.86.261.158c.228.112.008.522-.658,1.222a7.809,7.809,0,0,1-1.289,1.256,4.944,4.944,0,0,0,1.3,2.2l.362.36q-.247.711-1.691.033c-.209-.075-.454-.811-.743-2.2l-.021-.018a4.756,4.756,0,0,1-1.39.331,1.6,1.6,0,0,1-.627-.13,1.3,1.3,0,0,1-.461-1.264l.139-.265.053-.013a2.226,2.226,0,0,0,2.171.464l-.2-2.041.086-.167a.224.224,0,0,1,.271-.068l.2.12c.073.008.125.3.164.887l.173.984a4.753,4.753,0,0,0,1.736-1.817l.153-.031ZM19.9,52.417l-.555.817.322.193a5.215,5.215,0,0,0,1.2-.411l-.008-.037-.96-.562Zm.1-1.435.281.164c.2.211.175.47-.084.763l.936.62c.094.056.115.181.055.352l.671-.31.164.091c.093.4-.452.773-1.635,1.148l.534.36c-.184.466-.5.524-.963.151l-.431-.281-.984.13,1.686,1.024c.209.263,0,.4-.65.365l-1.242.186.08.685.969.431c.093.433-.265.47-1.07.121l-.052.085a3.8,3.8,0,0,1-.879,1.494,1.922,1.922,0,0,1-2.391-.6l.105-.938h.088l.733.6c.611.313,1.061.27,1.347-.144l.365-.635a20,20,0,0,0-2.819-.632c-.164-.078-.229-.177-.208-.3l.156-.292c.021-.3.619-.234,1.791.219l1.289.4c.084-.038-.005-.431-.286-1.169l.077-.148.1-.03c.112.015.261.157.437.429L19,55.134l.027-.052a4.347,4.347,0,0,0-2.7-1.03l-.413-.124a1.1,1.1,0,0,1-.4-.987l.1-.188c.042-.053.244.075.6.349a3.708,3.708,0,0,0,2.41.5l.076-.043-1.554-.889-.712-.3-.111-.236.119-.234a.546.546,0,0,1,.442-.132,10.914,10.914,0,0,0,1.887,1.1l.409-.876-1.373-.6-.055-.233.126-.223.376-.122,1.2.683.337-.481L20,50.982ZM33.73,56.8a8,8,0,0,1-1.416,1.1v.026a7.8,7.8,0,0,0,3.228,0l.024-.122-.716-.978Zm-.276,2.95-1.313.153-.024.527,3.877.018v-.6l-.122-.1ZM35.968,61l-3.88.169-.08.545,3.915.027Zm.4-1.856h.286c.285-.023.285.437,0,1.357l-.03,1.791a2.565,2.565,0,0,1,0,1.234c-.613.3-.85-.113-.7-1.234a26.853,26.853,0,0,0-4.189.16,2.665,2.665,0,0,1-2.205,1.2,2.066,2.066,0,0,1-1.061-.822v-.229c0-.087.129-.106.383-.087a5.024,5.024,0,0,0,1.887-.3c.763-.238.987-1.192.674-2.843l.181-.181a7.034,7.034,0,0,0,1.659,0l2.871.006.241-.058ZM33.71,54.99h.341c.315-.017.365.378.157,1.177l3.935-.016,1.068-.058c.241.345-.058.689-.9,1.024l-2.583-.249.886,1.305c.021.312-.116.45-.418.424l-3.106.023c0-.068-.467-.068-1.373,0a.6.6,0,0,1-.68-.175V58.2c-.068-.089.273-.346,1.022-.779l.6-.621a25.515,25.515,0,0,0-3.418.266.7.7,0,0,1-.722-.071l-.053-.323.383-.376a14.919,14.919,0,0,0,2.414-.074l2.309-.054-.173-.8V55.3c.053-.189.154-.29.31-.307M46.864,52.9l2.445,2.764a2.485,2.485,0,0,0,.993-1.282l.02-.41-.213-.308c-.216-.21-.59-.249-1.133-.123-.088-.043-.241.174-.441.643a.225.225,0,0,1-.3.056l-.139-.156.088-2.187-.061-.007L46.864,52.9Zm-.873-.013,2.52-2.02c.472-.132.6.319.366,1.368l-.033.617q.02.1.553,0a1.5,1.5,0,0,1,1.58.856c.241.825-.178,1.641-1.257,2.432L50.8,57.32a.664.664,0,0,1,.126.524c-.164.252-.379.262-.636.044-.2-.28-1.293-1.573-3.265-3.867l-.619-.648c-.039.125-.169.2-.367.217l-.21-.208c-.063-.143-.008-.295.164-.494m-.6,5.691c-.189.073-.1.294.253.671l.568.681.219-.017,1.309-1.087.3-.208c.118-.073-.081-.407-.612-.991l-.261-.309c-.084-.1-.537.213-1.361.924Zm-.888-.055a1.635,1.635,0,0,1,.655-.355L46.8,56.882a.487.487,0,0,1,.273-.3c.188-.155.55.207,1.076,1.066l.558.663c.166.135.154.306-.016.5A9.067,9.067,0,0,0,46.639,60.4l-.388.305-.184-.032c.049-.051-.292-.466-1-1.24l-.614-.679.048-.229Zm-1.442-4.1.229-.188c.209-.185.482.039.8.679l1.356-1.109q.523.458-.151.856L43,56.508l-.494.509-.233.008-.145-.167a.513.513,0,0,1,.033-.42,8.452,8.452,0,0,0,1.43-1.143L43,54.826a.336.336,0,0,1,.064-.4m2.117.637.216-.169c.236-.17.458.142.658.921l.053.075.8-.7c.341.068.407.282.2.629l-1.55,1.22A14.108,14.108,0,0,0,43.45,58.9c-.118.053-.2.055-.265.009l-.136-.163a.425.425,0,0,1,.076-.463,10.248,10.248,0,0,0,1-.8c.029-.068-.169-.174-.594-.327l-.345-.2a.325.325,0,0,1,.054-.3l.253-.2q.183-.3.96.655l.037.078,1.236-.991-.586-.942.041-.19Z" fill="#17110f"/>
    <path id="Path_4071" data-name="Path 4071" d="M113.791,25.3a26.9,26.9,0,0,1-2.523,8.691,10.79,10.79,0,0,0,4.135,3.877,10.862,10.862,0,0,0-1.916,2.43,12.5,12.5,0,0,1-3.925-3.737,15.516,15.516,0,0,1-4.953,3.832,11.693,11.693,0,0,0-1.589-2.523,11.718,11.718,0,0,0,5.023-4,29.417,29.417,0,0,1-1.589-4.719c-.35.561-.7,1.121-1.075,1.612a16.447,16.447,0,0,0-1.542-1.449,23.32,23.32,0,0,1-3.224,3.014v.584l4.089-.35v2.36c-1.355.14-2.734.28-4.089.4v2.313c0,1.215-.21,1.846-1.028,2.22a8.616,8.616,0,0,1-3.388.4,8.034,8.034,0,0,0-.794-2.36c.911.023,1.916.023,2.22.023.3-.023.4-.093.4-.328V35.58c-1.612.164-3.154.3-4.439.444l-.28-2.477c1.308-.117,2.944-.234,4.719-.4V31.866A17.164,17.164,0,0,0,99.96,30.23h-2.43a21.7,21.7,0,0,1-2.617,1.682,17,17,0,0,0-1.846-2.1,19.984,19.984,0,0,0,4.439-2.92H93.348V24.506H96.9V22.941H94.236V20.6H96.9V18.478h2.57V20.6h2.079v1.5a20.473,20.473,0,0,0,1.519-3.037l2.547.748a25.168,25.168,0,0,1-2.57,4.7H104.7v1.846a28.525,28.525,0,0,0,2.266-7.873l2.827.444q-.342,1.921-.841,3.808h6.215V25.3h-1.378ZM99.47,24.506h.374a15.133,15.133,0,0,0,1.168-1.565H99.47Zm3.832,4.089a11.974,11.974,0,0,0,1.121-1.706h-3.271a13.267,13.267,0,0,1-1.1,1.192h1.939l.491-.14Zm4.953-3.294a28.981,28.981,0,0,0,1.425,5.444,26.337,26.337,0,0,0,1.238-5.444Zm32.031-2.406h-4.86a28.769,28.769,0,0,1,4.112,3.621l-2.126,1.332h.981v9.486c0,1.5-.4,2.1-1.519,2.453a21.16,21.16,0,0,1-5.07.3,8.689,8.689,0,0,0-.654-2.36c1.285.093,3.2.093,3.6.07.467-.023.607-.14.607-.513V35.6c-3.434.748-6.892,1.449-9.6,2.009l-.818-2.453c1.939-.257,4.836-.678,7.873-1.145a36.5,36.5,0,0,0-7.336-1.892l.818-1.659a34.35,34.35,0,0,1,7.967,1.916l-.724,1.519,1.822-.28V30.137H124.912v1.449c0,2.734-.421,6.542-2.547,8.972a9.965,9.965,0,0,0-2.29-1.635c1.916-2.149,2.1-5.163,2.1-7.383V27.847h14.742q-.541-.647-1.145-1.238c-11.4.444-12.78.467-13.784.818-.14-.537-.561-1.822-.841-2.547a5.578,5.578,0,0,0,2.1-1.145,12.445,12.445,0,0,0,1.051-.841h-4.719v-2.43h7.336a22.6,22.6,0,0,0,1.986-2.266l2.827,1.075q-.526.6-1.121,1.192h9.672v2.43Zm-6.8,1.635c-.491-.374-.958-.748-1.4-1.075l.935-.561h-4.976q-1.132.968-2.336,1.846l7.78-.21Zm22.546-.561c-.491,1.121-.957,2.336-1.425,3.318h2.734V29.81H145V27.286H148a17.207,17.207,0,0,0-1.168-3.271l1.893-.467H145.59v-2.5h4.416a15.305,15.305,0,0,0-.748-2.033l2.547-.724a24.407,24.407,0,0,1,1.121,2.757h3.948v2.5h-2.733l1.891.421Zm-9.953,7.523h10.373V40.16H153.72v-.934h-5v1.051h-2.64V31.492Zm2.64,2.477v2.85h5v-2.85Zm.561-10.42a16.754,16.754,0,0,1,1.285,3.341l-1.4.4h2.78a27.283,27.283,0,0,0,1.308-3.738Zm17.289-2.874c-.794,2.243-1.752,4.93-2.64,6.939a7.78,7.78,0,0,1,2.22,5.467c0,1.682-.374,2.827-1.238,3.434a3.47,3.47,0,0,1-1.542.561,9.066,9.066,0,0,1-1.8.047,6.682,6.682,0,0,0-.678-2.57c.514.047.981.047,1.308.047a1.545,1.545,0,0,0,.864-.234c.4-.234.538-.818.538-1.612a7.032,7.032,0,0,0-2.266-4.813c.654-1.706,1.378-4.089,1.916-5.864h-2.617v18.13h-2.43V19.576h6.028l.4-.093Zm12.5,8.785v8.434c0,1-.164,1.565-.817,1.916a5.7,5.7,0,0,1-2.71.374,7.293,7.293,0,0,0-.632-2.033q.783.026,1.566.024c.233,0,.3-.094.3-.3V35.744q-1.114.754-2.266,1.449l-.607-1.308a10.437,10.437,0,0,1-1.4,4.485,9.265,9.265,0,0,0-1.938-1.332c1.144-1.752,1.237-4.135,1.237-5.981V29.482h-1.167V25.86h.911V19.2h7.593V25.86h.981v3.6h-1.051Zm-1.051-1.729h-5.35v.935h5.35ZM173.7,25.861h.911V22.123h2.266v-.958H173.7Zm.35,7.243c0,.678-.023,1.378-.07,2.149.794-.327,1.752-.794,2.8-1.308V32.917l-.935,1.028a19.9,19.9,0,0,0-1.8-1.542Zm0-1.308L174.84,31a19.8,19.8,0,0,1,1.939,1.4V30.464h-2.733V31.8Zm2.826-5.934V23.688h-.864v2.173Zm15.42,12.055v2.009H179.957V37.917h2.757q-.283-.864-.631-1.706l1.472-.444h-2.477V31.211h10.069v4.556h-2.663l1.8.491c-.374.584-.7,1.145-1.028,1.659h3.036Zm-.187-7.476H180.19V28.455h11.915V30.44Zm-.444-2.78H180.54v-7.5H183.3V18.5h2.149v1.659h1.027V18.5h2.173v1.659h3.013v7.5Zm-9.064-4.6h1.192V21.983H182.6Zm0,2.78h1.192v-1.1H182.6Zm.911,8.271h5.07V32.894h-5.07Zm.77,1.659c.28.7.584,1.5.794,2.149h1.892c.28-.7.584-1.5.771-2.149h-3.458Zm2.313-12.71V21.983H185.47v1.075ZM185.47,24.74v1.1h1.121v-1.1Zm4.042-2.757h-1.237v1.075h1.237Zm0,2.757h-1.237v1.1h1.237Zm27.872-1.846h-4.86a28.768,28.768,0,0,1,4.112,3.621l-2.126,1.332h.981v9.486c0,1.5-.4,2.1-1.518,2.453a21.16,21.16,0,0,1-5.07.3,8.689,8.689,0,0,0-.654-2.36c1.285.093,3.2.093,3.6.07.467-.023.607-.14.607-.513V35.6c-3.434.748-6.892,1.449-9.6,2.009l-.818-2.453c1.939-.257,4.837-.678,7.874-1.145a36.5,36.5,0,0,0-7.336-1.892l.817-1.659a34.347,34.347,0,0,1,7.968,1.916l-.724,1.519,1.822-.28V30.137H202.014v1.449c0,2.734-.421,6.542-2.547,8.972a9.983,9.983,0,0,0-2.29-1.635c1.916-2.149,2.1-5.163,2.1-7.383V27.847h14.742q-.541-.647-1.145-1.238c-11.4.444-12.779.467-13.784.818-.14-.537-.561-1.822-.841-2.547a5.584,5.584,0,0,0,2.1-1.145,12.176,12.176,0,0,0,1.051-.841h-4.719v-2.43h7.336A22.6,22.6,0,0,0,206.01,18.2l2.827,1.075q-.526.6-1.121,1.192h9.672v2.43Zm-6.8,1.635c-.491-.374-.957-.748-1.4-1.075l.935-.561h-4.976q-1.132.968-2.336,1.846ZM236.332,31c-.631.35-1.262.7-1.939,1.028h6.845v8.154h-2.71v-.514H229.6v.561h-2.57V34.857q-1.982.6-4,1.075a13.9,13.9,0,0,0-1.308-2.36A51.067,51.067,0,0,0,230.8,31h-8.435V28.829H230.7V27.684h-5.841v-2.1H230.7V24.507h-7.1V19.25h18.456v5.257h-8.668v1.075h4.766v1.4a18.758,18.758,0,0,0,2.243-2.009l2.2,1.332a23.316,23.316,0,0,1-2.9,2.523h3.5V31h-6.867Zm-7.5-9.859h-2.593V22.59h2.593Zm.841,12.85-.07.023v.911h8.925v-.935Zm8.855,3.715V36.655H229.6v1.051h8.925ZM231.379,22.59h2.64V21.142h-2.64Zm2.009,6.238h1.963c.631-.374,1.262-.748,1.846-1.145h-3.808v1.145Zm3.177-6.238h2.71V21.142h-2.71ZM95.5,50.948a4.408,4.408,0,0,1-1.757-.853,1.63,1.63,0,0,1-.55-1.249,1.722,1.722,0,0,1,.673-1.391,2.673,2.673,0,0,1,1.748-.55,2.91,2.91,0,0,1,1.308.284,2.15,2.15,0,0,1,.889.783,2,2,0,0,1,.315,1.091h-.944a1.3,1.3,0,0,0-.411-1.018,1.67,1.67,0,0,0-1.159-.37,1.708,1.708,0,0,0-1.083.306,1.02,1.02,0,0,0-.389.85.917.917,0,0,0,.369.737,3.608,3.608,0,0,0,1.257.551,5.846,5.846,0,0,1,1.388.551,2.116,2.116,0,0,1,.743.7,1.785,1.785,0,0,1,.242.944,1.664,1.664,0,0,1-.675,1.386,2.877,2.877,0,0,1-1.8.521,3.343,3.343,0,0,1-1.369-.281,2.307,2.307,0,0,1-.98-.77,1.876,1.876,0,0,1-.345-1.11h.945a1.226,1.226,0,0,0,.476,1.02,2.007,2.007,0,0,0,1.273.374,1.844,1.844,0,0,0,1.139-.3.985.985,0,0,0,.4-.826.967.967,0,0,0-.366-.809,4.225,4.225,0,0,0-1.33-.567Zm8.17.587a3.17,3.17,0,0,1-.552,1.946,1.77,1.77,0,0,1-1.5.738,1.939,1.939,0,0,1-1.515-.611v2.547h-.9V48.831h.826l.044.587a1.863,1.863,0,0,1,1.535-.684,1.805,1.805,0,0,1,1.509.718,3.2,3.2,0,0,1,.555,2v.083Zm-.9-.1a2.334,2.334,0,0,0-.381-1.413,1.229,1.229,0,0,0-1.046-.518,1.331,1.331,0,0,0-1.232.728v2.527a1.332,1.332,0,0,0,1.242.723,1.221,1.221,0,0,0,1.034-.516A2.554,2.554,0,0,0,102.766,51.432Zm1.814-.005a3.127,3.127,0,0,1,.305-1.4,2.274,2.274,0,0,1,.851-.958,2.321,2.321,0,0,1,1.244-.337,2.233,2.233,0,0,1,1.748.748,2.879,2.879,0,0,1,.668,1.99v.063a3.155,3.155,0,0,1-.3,1.386,2.247,2.247,0,0,1-.846.956,2.339,2.339,0,0,1-1.264.342,2.227,2.227,0,0,1-1.743-.748,2.864,2.864,0,0,1-.668-1.98Zm.909.108a2.262,2.262,0,0,0,.408,1.413,1.384,1.384,0,0,0,2.189-.007,2.469,2.469,0,0,0,.406-1.513,2.258,2.258,0,0,0-.413-1.41,1.315,1.315,0,0,0-1.1-.54,1.3,1.3,0,0,0-1.081.533,2.452,2.452,0,0,0-.411,1.524Zm7.6-1.892a2.742,2.742,0,0,0-.445-.034,1.192,1.192,0,0,0-1.207.758v3.755h-.9v-5.29h.88l.015.611a1.409,1.409,0,0,1,1.262-.709.917.917,0,0,1,.4.068v.842Zm2.058-2.093v1.281h.988v.7h-.988v3.285a.737.737,0,0,0,.132.477.555.555,0,0,0,.45.159,2.182,2.182,0,0,0,.431-.058v.729a2.662,2.662,0,0,1-.694.1,1.127,1.127,0,0,1-.915-.366,1.576,1.576,0,0,1-.308-1.041V49.53h-.963v-.7h.963V47.55Zm5.124,5.167a.666.666,0,0,0-.276-.57,2.657,2.657,0,0,0-.963-.35,4.559,4.559,0,0,1-1.091-.352,1.542,1.542,0,0,1-.6-.489,1.172,1.172,0,0,1-.193-.675,1.372,1.372,0,0,1,.55-1.1,2.149,2.149,0,0,1,1.406-.45,2.21,2.21,0,0,1,1.459.465,1.476,1.476,0,0,1,.56,1.188h-.91a.817.817,0,0,0-.315-.641,1.18,1.18,0,0,0-.794-.269,1.236,1.236,0,0,0-.773.215.676.676,0,0,0-.279.562.549.549,0,0,0,.259.494,3.18,3.18,0,0,0,.936.318,4.869,4.869,0,0,1,1.1.362,1.6,1.6,0,0,1,.623.506,1.243,1.243,0,0,1,.2.721,1.353,1.353,0,0,1-.567,1.136,2.383,2.383,0,0,1-1.472.428,2.662,2.662,0,0,1-1.125-.225,1.832,1.832,0,0,1-.765-.628,1.512,1.512,0,0,1-.276-.873h.9a.937.937,0,0,0,.365.721,1.413,1.413,0,0,0,.9.266,1.458,1.458,0,0,0,.824-.208.637.637,0,0,0,.311-.554Zm8.634-.46h-2.982l-.67,1.862h-.968L127,47h.821l2.724,7.118h-.963l-.68-1.862Zm-2.7-.767h2.42l-1.212-3.329L126.2,51.491Zm4.938-.059a3.1,3.1,0,0,1,.577-1.958,1.963,1.963,0,0,1,2.983-.105V46.611h.9v7.51h-.831l-.044-.567a1.843,1.843,0,0,1-1.511.665,1.808,1.808,0,0,1-1.5-.753,3.133,3.133,0,0,1-.579-1.965Zm.9.1a2.348,2.348,0,0,0,.371,1.408,1.2,1.2,0,0,0,1.026.508,1.32,1.32,0,0,0,1.257-.773v-2.43a1.328,1.328,0,0,0-1.247-.748,1.207,1.207,0,0,0-1.036.513,2.583,2.583,0,0,0-.371,1.52Zm5.813-2.7.024.587a1.954,1.954,0,0,1,1.57-.684,1.513,1.513,0,0,1,1.511.851,2,2,0,0,1,.687-.616,2.033,2.033,0,0,1,1-.234q1.741,0,1.77,1.843v3.545h-.9V50.63a1.217,1.217,0,0,0-.26-.849,1.14,1.14,0,0,0-.87-.281,1.2,1.2,0,0,0-.836.3,1.217,1.217,0,0,0-.386.809v3.51h-.91V50.655a1.009,1.009,0,0,0-1.13-1.154,1.211,1.211,0,0,0-1.217.758v3.862H137v-5.29h.857Zm7.929-1.4a.54.54,0,0,1,.134-.371.505.505,0,0,1,.4-.152.512.512,0,0,1,.4.152.536.536,0,0,1,.137.371.535.535,0,1,1-1.071,0Zm.978,6.694h-.9v-5.29h.9Zm2.3-5.29.029.665a1.928,1.928,0,0,1,1.584-.763q1.677,0,1.691,1.892v3.5h-.9v-3.5a1.22,1.22,0,0,0-.261-.846,1.047,1.047,0,0,0-.8-.274,1.309,1.309,0,0,0-.773.234,1.588,1.588,0,0,0-.518.616v3.77h-.9v-5.29Zm4.674-1.4a.54.54,0,0,1,.134-.371.506.506,0,0,1,.4-.152.512.512,0,0,1,.4.152.536.536,0,0,1,.137.371.535.535,0,1,1-1.071,0Zm.978,6.694h-.9v-5.29h.9Zm4.527-1.4a.666.666,0,0,0-.276-.57,2.657,2.657,0,0,0-.963-.35,4.559,4.559,0,0,1-1.091-.352,1.541,1.541,0,0,1-.6-.489,1.172,1.172,0,0,1-.193-.675,1.372,1.372,0,0,1,.55-1.1,2.149,2.149,0,0,1,1.406-.45,2.21,2.21,0,0,1,1.459.465,1.476,1.476,0,0,1,.56,1.188H159.2a.817.817,0,0,0-.315-.641,1.18,1.18,0,0,0-.794-.269,1.236,1.236,0,0,0-.773.215.676.676,0,0,0-.279.562.549.549,0,0,0,.26.494,3.18,3.18,0,0,0,.936.318,4.869,4.869,0,0,1,1.1.362,1.6,1.6,0,0,1,.623.506,1.243,1.243,0,0,1,.2.721,1.353,1.353,0,0,1-.567,1.136,2.383,2.383,0,0,1-1.472.428,2.662,2.662,0,0,1-1.125-.225,1.832,1.832,0,0,1-.765-.628,1.512,1.512,0,0,1-.276-.873h.9a.937.937,0,0,0,.365.721,1.413,1.413,0,0,0,.9.266,1.458,1.458,0,0,0,.824-.208.637.637,0,0,0,.311-.554Zm3.31-5.167v1.281h.988v.7h-.988v3.285a.737.737,0,0,0,.132.477.555.555,0,0,0,.45.159,2.182,2.182,0,0,0,.431-.058v.729a2.661,2.661,0,0,1-.694.1,1.127,1.127,0,0,1-.914-.366,1.576,1.576,0,0,1-.308-1.041V49.53h-.963v-.7h.963V47.55h.9Zm4.6,2.093a2.743,2.743,0,0,0-.445-.034,1.192,1.192,0,0,0-1.207.758v3.755h-.9v-5.29h.88l.015.611a1.409,1.409,0,0,1,1.262-.709.917.917,0,0,1,.4.068v.842Zm4.1,4.478a1.889,1.889,0,0,1-.127-.557,2.019,2.019,0,0,1-1.506.655,1.869,1.869,0,0,1-1.283-.442,1.433,1.433,0,0,1-.5-1.122,1.5,1.5,0,0,1,.628-1.283,2.963,2.963,0,0,1,1.767-.457h.88V50.5a1.013,1.013,0,0,0-.284-.755,1.143,1.143,0,0,0-.836-.281,1.322,1.322,0,0,0-.812.244.72.72,0,0,0-.328.592h-.91a1.247,1.247,0,0,1,.281-.765,1.92,1.92,0,0,1,.763-.584,2.566,2.566,0,0,1,1.059-.215,2.093,2.093,0,0,1,1.433.457,1.65,1.65,0,0,1,.538,1.259v2.435a2.97,2.97,0,0,0,.186,1.159v.078h-.949Zm-1.5-.689a1.589,1.589,0,0,0,.807-.22,1.329,1.329,0,0,0,.552-.572V51.553h-.709q-1.662,0-1.662.973a.823.823,0,0,0,.284.665,1.089,1.089,0,0,0,.728.24Zm4.909-5.882v1.281h.988v.7h-.988v3.285a.737.737,0,0,0,.132.477.555.555,0,0,0,.45.159,2.182,2.182,0,0,0,.431-.058v.729a2.661,2.661,0,0,1-.694.1,1.127,1.127,0,0,1-.915-.366,1.576,1.576,0,0,1-.308-1.041V49.53H172.8v-.7h.963V47.55h.9Zm2.048-.123a.54.54,0,0,1,.134-.371.506.506,0,0,1,.4-.152.512.512,0,0,1,.4.152.536.536,0,0,1,.137.371.535.535,0,1,1-1.071,0Zm.978,6.694h-.9v-5.29h.9Zm1.207-2.694a3.127,3.127,0,0,1,.305-1.4,2.274,2.274,0,0,1,.851-.958,2.321,2.321,0,0,1,1.244-.337,2.233,2.233,0,0,1,1.748.748,2.879,2.879,0,0,1,.668,1.99v.063a3.155,3.155,0,0,1-.3,1.386,2.247,2.247,0,0,1-.846.956,2.339,2.339,0,0,1-1.264.342,2.227,2.227,0,0,1-1.743-.748,2.864,2.864,0,0,1-.668-1.98v-.064Zm.909.108a2.262,2.262,0,0,0,.408,1.413,1.384,1.384,0,0,0,2.189-.007,2.469,2.469,0,0,0,.406-1.513,2.258,2.258,0,0,0-.413-1.41,1.315,1.315,0,0,0-1.1-.54,1.3,1.3,0,0,0-1.081.533,2.452,2.452,0,0,0-.411,1.524Zm5.9-2.7.029.665a1.928,1.928,0,0,1,1.584-.763q1.677,0,1.691,1.892v3.5h-.9v-3.5a1.22,1.22,0,0,0-.261-.846,1.047,1.047,0,0,0-.8-.274,1.309,1.309,0,0,0-.773.234,1.588,1.588,0,0,0-.518.616v3.77h-.9v-5.29Zm4.64,6.708-.513-.352a2.357,2.357,0,0,0,.479-1.32v-.817h.885v.709a2.232,2.232,0,0,1-.242.988A2.3,2.3,0,0,1,190.345,55.538ZM196.172,47l2.327,5.808L200.827,47h1.217v7.118h-.939V51.349l.088-2.992-2.337,5.764h-.718l-2.332-5.75.093,2.977V54.12h-.939V47h1.213Zm7.393.425a.54.54,0,0,1,.134-.371.506.506,0,0,1,.4-.152.512.512,0,0,1,.4.152.536.536,0,0,1,.137.371.535.535,0,1,1-1.071,0Zm.978,6.694h-.9v-5.29h.9Zm2.3-5.29.029.665a1.928,1.928,0,0,1,1.584-.763q1.677,0,1.691,1.892v3.5h-.9v-3.5a1.22,1.22,0,0,0-.261-.846,1.047,1.047,0,0,0-.8-.274,1.309,1.309,0,0,0-.773.234,1.588,1.588,0,0,0-.518.616v3.77h-.9v-5.29Zm4.674-1.4a.54.54,0,0,1,.134-.371.506.506,0,0,1,.4-.152.512.512,0,0,1,.4.152.536.536,0,0,1,.137.371.535.535,0,1,1-1.071,0Zm.978,6.694h-.9v-5.29h.9Zm4.527-1.4a.666.666,0,0,0-.276-.57,2.657,2.657,0,0,0-.963-.35,4.559,4.559,0,0,1-1.091-.352,1.541,1.541,0,0,1-.6-.489,1.172,1.172,0,0,1-.193-.675,1.372,1.372,0,0,1,.55-1.1,2.149,2.149,0,0,1,1.406-.45,2.21,2.21,0,0,1,1.459.465,1.476,1.476,0,0,1,.56,1.188h-.91a.817.817,0,0,0-.315-.641,1.18,1.18,0,0,0-.794-.269,1.236,1.236,0,0,0-.773.215.676.676,0,0,0-.279.562.549.549,0,0,0,.26.494,3.18,3.18,0,0,0,.936.318,4.869,4.869,0,0,1,1.1.362,1.6,1.6,0,0,1,.623.506,1.243,1.243,0,0,1,.2.721,1.354,1.354,0,0,1-.567,1.136,2.383,2.383,0,0,1-1.472.428,2.662,2.662,0,0,1-1.125-.225,1.832,1.832,0,0,1-.765-.628,1.512,1.512,0,0,1-.276-.873h.9a.937.937,0,0,0,.365.721,1.413,1.413,0,0,0,.9.266,1.458,1.458,0,0,0,.824-.208.637.637,0,0,0,.311-.554Zm3.309-5.167v1.281h.988v.7h-.988v3.285a.737.737,0,0,0,.132.477.555.555,0,0,0,.45.159,2.182,2.182,0,0,0,.431-.058v.729a2.661,2.661,0,0,1-.694.1,1.127,1.127,0,0,1-.914-.366,1.576,1.576,0,0,1-.308-1.041V49.53h-.963v-.7h.963V47.55h.9Zm4.6,2.093a2.743,2.743,0,0,0-.445-.034,1.192,1.192,0,0,0-1.207.758v3.755h-.9v-5.29h.88l.015.611a1.409,1.409,0,0,1,1.262-.709.917.917,0,0,1,.4.068v.842ZM227.5,52.8l1.232-3.965h.968l-2.127,6.106q-.494,1.32-1.57,1.32l-.171-.015-.337-.063v-.733l.244.019a1.2,1.2,0,0,0,.716-.186,1.349,1.349,0,0,0,.423-.679l.2-.538-1.887-5.232h.988Zm5.246-1.369a3.127,3.127,0,0,1,.305-1.4,2.274,2.274,0,0,1,.851-.958,2.321,2.321,0,0,1,1.244-.337,2.233,2.233,0,0,1,1.748.748,2.879,2.879,0,0,1,.668,1.99v.063a3.155,3.155,0,0,1-.3,1.386,2.247,2.247,0,0,1-.846.956,2.339,2.339,0,0,1-1.264.342,2.227,2.227,0,0,1-1.743-.748,2.864,2.864,0,0,1-.668-1.98v-.064Zm.91.108a2.262,2.262,0,0,0,.408,1.413,1.384,1.384,0,0,0,2.189-.007,2.469,2.469,0,0,0,.406-1.513,2.258,2.258,0,0,0-.413-1.41,1.315,1.315,0,0,0-1.1-.54,1.3,1.3,0,0,0-1.081.533,2.452,2.452,0,0,0-.411,1.524Zm5.485,2.587V49.53H238.3v-.7h.836v-.542a1.8,1.8,0,0,1,.455-1.315,1.718,1.718,0,0,1,1.286-.465,2.386,2.386,0,0,1,.621.083l-.049.729a2.612,2.612,0,0,0-.489-.044.88.88,0,0,0-.679.258,1.047,1.047,0,0,0-.239.738v.559h1.13v.7h-1.13v4.591h-.9Zm9.676-3.29h-3.085v2.522h3.584v.768H244.79V47h4.473v.768h-3.535v2.293h3.085v.768Zm1.306.6a3.1,3.1,0,0,1,.577-1.958,1.963,1.963,0,0,1,2.983-.105V46.611h.9v7.51h-.831l-.044-.567a1.843,1.843,0,0,1-1.511.665,1.808,1.808,0,0,1-1.5-.753,3.133,3.133,0,0,1-.579-1.965v-.069Zm.9.1a2.348,2.348,0,0,0,.371,1.408,1.2,1.2,0,0,0,1.026.508,1.32,1.32,0,0,0,1.257-.773v-2.43a1.328,1.328,0,0,0-1.247-.748,1.207,1.207,0,0,0-1.036.513,2.583,2.583,0,0,0-.371,1.52Zm8.228,2.063a1.921,1.921,0,0,1-1.549.621,1.644,1.644,0,0,1-1.288-.491,2.126,2.126,0,0,1-.447-1.454V48.831h.9v3.418q0,1.2.978,1.2a1.354,1.354,0,0,0,1.378-.773V48.831h.9v5.29h-.86l-.02-.523Zm4.376-.118a1.3,1.3,0,0,0,.846-.294,1.032,1.032,0,0,0,.4-.733h.855a1.647,1.647,0,0,1-.313.865,2.055,2.055,0,0,1-.77.655,2.226,2.226,0,0,1-1.02.244,2.181,2.181,0,0,1-1.719-.721,2.87,2.87,0,0,1-.638-1.973v-.152A3.177,3.177,0,0,1,261.553,50a2.161,2.161,0,0,1,.814-.934,2.318,2.318,0,0,1,1.254-.332,2.119,2.119,0,0,1,1.479.533,1.907,1.907,0,0,1,.628,1.383h-.855a1.248,1.248,0,0,0-.389-.844,1.208,1.208,0,0,0-.863-.33,1.264,1.264,0,0,0-1.068.5,2.336,2.336,0,0,0-.379,1.435v.171a2.286,2.286,0,0,0,.376,1.408,1.273,1.273,0,0,0,1.076.493Zm6.385.641a1.889,1.889,0,0,1-.127-.557,2.019,2.019,0,0,1-1.506.655,1.868,1.868,0,0,1-1.283-.442,1.433,1.433,0,0,1-.5-1.122,1.5,1.5,0,0,1,.628-1.283,2.963,2.963,0,0,1,1.767-.457h.88V50.5a1.013,1.013,0,0,0-.284-.755,1.143,1.143,0,0,0-.836-.281,1.322,1.322,0,0,0-.812.244.72.72,0,0,0-.328.592H266.7a1.247,1.247,0,0,1,.281-.765,1.919,1.919,0,0,1,.763-.584,2.567,2.567,0,0,1,1.059-.215,2.093,2.093,0,0,1,1.433.457,1.65,1.65,0,0,1,.538,1.259v2.435a2.97,2.97,0,0,0,.186,1.159v.078h-.949Zm-1.5-.689a1.589,1.589,0,0,0,.807-.22,1.329,1.329,0,0,0,.552-.572V51.553h-.709q-1.662,0-1.662.973a.823.823,0,0,0,.284.665,1.087,1.087,0,0,0,.728.24Zm4.908-5.882v1.281h.988v.7h-.988v3.285a.737.737,0,0,0,.132.477.555.555,0,0,0,.45.159,2.182,2.182,0,0,0,.431-.058v.729a2.661,2.661,0,0,1-.694.1,1.127,1.127,0,0,1-.914-.366,1.576,1.576,0,0,1-.308-1.041V49.53h-.963v-.7h.963V47.55Zm2.049-.123a.54.54,0,0,1,.134-.371.506.506,0,0,1,.4-.152.512.512,0,0,1,.4.152.536.536,0,0,1,.137.371.535.535,0,1,1-1.071,0Zm.977,6.694h-.9v-5.29h.9Zm1.208-2.694a3.127,3.127,0,0,1,.305-1.4,2.274,2.274,0,0,1,.851-.958,2.321,2.321,0,0,1,1.244-.337,2.233,2.233,0,0,1,1.748.748,2.879,2.879,0,0,1,.668,1.99v.063a3.155,3.155,0,0,1-.3,1.386,2.247,2.247,0,0,1-.846.956,2.339,2.339,0,0,1-1.264.342,2.227,2.227,0,0,1-1.743-.748,2.864,2.864,0,0,1-.668-1.98Zm.909.108a2.262,2.262,0,0,0,.408,1.413,1.384,1.384,0,0,0,2.189-.007,2.469,2.469,0,0,0,.406-1.513,2.258,2.258,0,0,0-.413-1.41,1.315,1.315,0,0,0-1.1-.54,1.3,1.3,0,0,0-1.081.533,2.452,2.452,0,0,0-.411,1.524Zm5.9-2.7.029.665a1.928,1.928,0,0,1,1.584-.763q1.677,0,1.691,1.892v3.5h-.9v-3.5a1.22,1.22,0,0,0-.261-.846,1.047,1.047,0,0,0-.8-.274,1.309,1.309,0,0,0-.773.234,1.588,1.588,0,0,0-.518.616v3.77h-.9v-5.29Z" transform="translate(-15.105 -2.662)" fill="#333"/>
  </g>
</svg>
